<?xml version="1.0" encoding="UTF-8"?>
<svg xmlns="http://www.w3.org/2000/svg" xmlns:xlink="http://www.w3.org/1999/xlink" width="192px" height="192px" viewBox="0 0 192 192" version="1.1">
<g id="surface1">
<path style=" stroke:none;fill-rule:nonzero;fill:rgb(94.901961%,81.176471%,38.039216%);fill-opacity:1;" d="M 192 96 C 192 149.019531 149.019531 192 96 192 C 42.980469 192 0 149.019531 0 96 C 0 42.980469 42.980469 0 96 0 C 149.019531 0 192 42.980469 192 96 Z M 192 96 "/>
<path style=" stroke:none;fill-rule:nonzero;fill:rgb(70.196078%,70.196078%,70.196078%);fill-opacity:1;" d="M 0 151.5 L 192 151.5 L 192 156 C 192 158.476562 189.976562 160.5 187.5 160.5 L 4.5 160.5 C 2.027344 160.5 0 158.476562 0 156 Z M 0 151.5 "/>
<path style=" stroke:none;fill-rule:nonzero;fill:rgb(90.196078%,90.196078%,90.196078%);fill-opacity:1;" d="M 162 124.5 L 30 124.5 L 0 151.5 L 192 151.5 Z M 162 124.5 "/>
<path style=" stroke:none;fill-rule:nonzero;fill:rgb(96.078431%,96.078431%,96.078431%);fill-opacity:1;" d="M 15.636719 145.5 L 32.300781 130.5 L 159.699219 130.5 L 176.363281 145.5 Z M 15.636719 145.5 "/>
<path style=" stroke:none;fill-rule:nonzero;fill:rgb(90.196078%,90.196078%,90.196078%);fill-opacity:1;" d="M 108 151.5 C 108 153.15625 106.65625 154.5 105 154.5 L 84 154.5 C 82.34375 154.5 81 153.15625 81 151.5 Z M 108 151.5 "/>
<path style=" stroke:none;fill-rule:nonzero;fill:rgb(14.901961%,21.568627%,25.098039%);fill-opacity:1;" d="M 30 124.5 L 30 43.5 C 30 41.023438 32.027344 39 34.5 39 L 157.5 39 C 159.976562 39 162 41.023438 162 43.5 L 162 124.5 Z M 30 124.5 "/>
<path style=" stroke:none;fill-rule:nonzero;fill:rgb(25.098039%,41.568627%,50.196078%);fill-opacity:1;" d="M 39 48 L 153 48 L 153 117 L 39 117 Z M 39 48 "/>
<path style=" stroke:none;fill-rule:nonzero;fill:rgb(43.921569%,80%,74.117647%);fill-opacity:1;" d="M 156 127.5 C 156 128.328125 155.328125 129 154.5 129 C 153.671875 129 153 128.328125 153 127.5 C 153 126.671875 153.671875 126 154.5 126 C 155.328125 126 156 126.671875 156 127.5 Z M 156 127.5 "/>
<path style=" stroke:none;fill-rule:nonzero;fill:rgb(80%,34.509804%,29.803922%);fill-opacity:1;" d="M 97.5 43.5 C 97.5 44.328125 96.828125 45 96 45 C 95.171875 45 94.5 44.328125 94.5 43.5 C 94.5 42.671875 95.171875 42 96 42 C 96.828125 42 97.5 42.671875 97.5 43.5 Z M 97.5 43.5 "/>
<path style=" stroke:none;fill-rule:nonzero;fill:rgb(14.901961%,21.568627%,25.098039%);fill-opacity:1;" d="M 172.5 157.5 L 157.5 157.5 C 156.671875 157.5 156 156.828125 156 156 C 156 155.171875 156.671875 154.5 157.5 154.5 L 172.5 154.5 C 173.328125 154.5 174 155.171875 174 156 C 174 156.828125 173.328125 157.5 172.5 157.5 Z M 172.5 157.5 "/>
</g>
</svg>
