<?xml version="1.0" encoding="UTF-8"?>
<svg xmlns="http://www.w3.org/2000/svg" xmlns:xlink="http://www.w3.org/1999/xlink" width="512px" height="512px" viewBox="0 0 512 512" version="1.1">
<g id="surface1">
<path style=" stroke:none;fill-rule:nonzero;fill:rgb(94.901961%,81.176471%,38.039216%);fill-opacity:1;" d="M 512 256 C 512 397.386719 397.386719 512 256 512 C 114.613281 512 0 397.386719 0 256 C 0 114.613281 114.613281 0 256 0 C 397.386719 0 512 114.613281 512 256 Z M 512 256 "/>
<path style=" stroke:none;fill-rule:nonzero;fill:rgb(70.196078%,70.196078%,70.196078%);fill-opacity:1;" d="M 0 404 L 512 404 L 512 416 C 512 422.601562 506.601562 428 500 428 L 12 428 C 5.402344 428 0 422.601562 0 416 Z M 0 404 "/>
<path style=" stroke:none;fill-rule:nonzero;fill:rgb(90.196078%,90.196078%,90.196078%);fill-opacity:1;" d="M 432 332 L 80 332 L 0 404 L 512 404 Z M 432 332 "/>
<path style=" stroke:none;fill-rule:nonzero;fill:rgb(96.078431%,96.078431%,96.078431%);fill-opacity:1;" d="M 41.695312 388 L 86.140625 348 L 425.859375 348 L 470.304688 388 Z M 41.695312 388 "/>
<path style=" stroke:none;fill-rule:nonzero;fill:rgb(90.196078%,90.196078%,90.196078%);fill-opacity:1;" d="M 288 404 C 288 408.414062 284.414062 412 280 412 L 224 412 C 219.585938 412 216 408.414062 216 404 Z M 288 404 "/>
<path style=" stroke:none;fill-rule:nonzero;fill:rgb(14.901961%,21.568627%,25.098039%);fill-opacity:1;" d="M 80 332 L 80 116 C 80 109.398438 85.402344 104 92 104 L 420 104 C 426.601562 104 432 109.398438 432 116 L 432 332 Z M 80 332 "/>
<path style=" stroke:none;fill-rule:nonzero;fill:rgb(25.098039%,41.568627%,50.196078%);fill-opacity:1;" d="M 104 128 L 408 128 L 408 312 L 104 312 Z M 104 128 "/>
<path style=" stroke:none;fill-rule:nonzero;fill:rgb(43.921569%,80%,74.117647%);fill-opacity:1;" d="M 416 340 C 416 342.210938 414.210938 344 412 344 C 409.789062 344 408 342.210938 408 340 C 408 337.789062 409.789062 336 412 336 C 414.210938 336 416 337.789062 416 340 Z M 416 340 "/>
<path style=" stroke:none;fill-rule:nonzero;fill:rgb(80%,34.509804%,29.803922%);fill-opacity:1;" d="M 260 116 C 260 118.210938 258.210938 120 256 120 C 253.789062 120 252 118.210938 252 116 C 252 113.789062 253.789062 112 256 112 C 258.210938 112 260 113.789062 260 116 Z M 260 116 "/>
<path style=" stroke:none;fill-rule:nonzero;fill:rgb(14.901961%,21.568627%,25.098039%);fill-opacity:1;" d="M 460 420 L 420 420 C 417.792969 420 416 418.210938 416 416 C 416 413.789062 417.792969 412 420 412 L 460 412 C 462.210938 412 464 413.789062 464 416 C 464 418.210938 462.210938 420 460 420 Z M 460 420 "/>
</g>
</svg>
