<?xml version="1.0" encoding="UTF-8"?>
<svg xmlns="http://www.w3.org/2000/svg" xmlns:xlink="http://www.w3.org/1999/xlink" width="72px" height="72px" viewBox="0 0 72 72" version="1.1">
<g id="surface1">
<path style=" stroke:none;fill-rule:nonzero;fill:rgb(94.901961%,81.176471%,38.039216%);fill-opacity:1;" d="M 72 36 C 72 55.882812 55.882812 72 36 72 C 16.117188 72 0 55.882812 0 36 C 0 16.117188 16.117188 0 36 0 C 55.882812 0 72 16.117188 72 36 Z M 72 36 "/>
<path style=" stroke:none;fill-rule:nonzero;fill:rgb(70.196078%,70.196078%,70.196078%);fill-opacity:1;" d="M 0 56.8125 L 72 56.8125 L 72 58.5 C 72 59.429688 71.242188 60.1875 70.3125 60.1875 L 1.6875 60.1875 C 0.761719 60.1875 0 59.429688 0 58.5 Z M 0 56.8125 "/>
<path style=" stroke:none;fill-rule:nonzero;fill:rgb(90.196078%,90.196078%,90.196078%);fill-opacity:1;" d="M 60.75 46.6875 L 11.25 46.6875 L 0 56.8125 L 72 56.8125 Z M 60.75 46.6875 "/>
<path style=" stroke:none;fill-rule:nonzero;fill:rgb(96.078431%,96.078431%,96.078431%);fill-opacity:1;" d="M 5.863281 54.5625 L 12.113281 48.9375 L 59.886719 48.9375 L 66.136719 54.5625 Z M 5.863281 54.5625 "/>
<path style=" stroke:none;fill-rule:nonzero;fill:rgb(90.196078%,90.196078%,90.196078%);fill-opacity:1;" d="M 40.5 56.8125 C 40.5 57.433594 39.996094 57.9375 39.375 57.9375 L 31.5 57.9375 C 30.878906 57.9375 30.375 57.433594 30.375 56.8125 Z M 40.5 56.8125 "/>
<path style=" stroke:none;fill-rule:nonzero;fill:rgb(14.901961%,21.568627%,25.098039%);fill-opacity:1;" d="M 11.25 46.6875 L 11.25 16.3125 C 11.25 15.382812 12.011719 14.625 12.9375 14.625 L 59.0625 14.625 C 59.992188 14.625 60.75 15.382812 60.75 16.3125 L 60.75 46.6875 Z M 11.25 46.6875 "/>
<path style=" stroke:none;fill-rule:nonzero;fill:rgb(25.098039%,41.568627%,50.196078%);fill-opacity:1;" d="M 14.625 18 L 57.375 18 L 57.375 43.875 L 14.625 43.875 Z M 14.625 18 "/>
<path style=" stroke:none;fill-rule:nonzero;fill:rgb(43.921569%,80%,74.117647%);fill-opacity:1;" d="M 58.5 47.8125 C 58.5 48.125 58.25 48.375 57.9375 48.375 C 57.625 48.375 57.375 48.125 57.375 47.8125 C 57.375 47.5 57.625 47.25 57.9375 47.25 C 58.25 47.25 58.5 47.5 58.5 47.8125 Z M 58.5 47.8125 "/>
<path style=" stroke:none;fill-rule:nonzero;fill:rgb(80%,34.509804%,29.803922%);fill-opacity:1;" d="M 36.5625 16.3125 C 36.5625 16.625 36.3125 16.875 36 16.875 C 35.6875 16.875 35.4375 16.625 35.4375 16.3125 C 35.4375 16 35.6875 15.75 36 15.75 C 36.3125 15.75 36.5625 16 36.5625 16.3125 Z M 36.5625 16.3125 "/>
<path style=" stroke:none;fill-rule:nonzero;fill:rgb(14.901961%,21.568627%,25.098039%);fill-opacity:1;" d="M 64.6875 59.0625 L 59.0625 59.0625 C 58.753906 59.0625 58.5 58.8125 58.5 58.5 C 58.5 58.1875 58.753906 57.9375 59.0625 57.9375 L 64.6875 57.9375 C 65 57.9375 65.25 58.1875 65.25 58.5 C 65.25 58.8125 65 59.0625 64.6875 59.0625 Z M 64.6875 59.0625 "/>
</g>
</svg>
