<?xml version="1.0" encoding="UTF-8"?>
<svg xmlns="http://www.w3.org/2000/svg" xmlns:xlink="http://www.w3.org/1999/xlink" width="168px" height="168px" viewBox="0 0 168 168" version="1.1">
<g id="surface1">
<path style=" stroke:none;fill-rule:nonzero;fill:rgb(94.901961%,81.176471%,38.039216%);fill-opacity:1;" d="M 168 84 C 168 130.390625 130.390625 168 84 168 C 37.609375 168 0 130.390625 0 84 C 0 37.609375 37.609375 0 84 0 C 130.390625 0 168 37.609375 168 84 Z M 168 84 "/>
<path style=" stroke:none;fill-rule:nonzero;fill:rgb(70.196078%,70.196078%,70.196078%);fill-opacity:1;" d="M 0 132.5625 L 168 132.5625 L 168 136.5 C 168 138.664062 166.226562 140.4375 164.0625 140.4375 L 3.9375 140.4375 C 1.773438 140.4375 0 138.664062 0 136.5 Z M 0 132.5625 "/>
<path style=" stroke:none;fill-rule:nonzero;fill:rgb(90.196078%,90.196078%,90.196078%);fill-opacity:1;" d="M 141.75 108.9375 L 26.25 108.9375 L 0 132.5625 L 168 132.5625 Z M 141.75 108.9375 "/>
<path style=" stroke:none;fill-rule:nonzero;fill:rgb(96.078431%,96.078431%,96.078431%);fill-opacity:1;" d="M 13.679688 127.3125 L 28.265625 114.1875 L 139.734375 114.1875 L 154.320312 127.3125 Z M 13.679688 127.3125 "/>
<path style=" stroke:none;fill-rule:nonzero;fill:rgb(90.196078%,90.196078%,90.196078%);fill-opacity:1;" d="M 94.5 132.5625 C 94.5 134.011719 93.324219 135.1875 91.875 135.1875 L 73.5 135.1875 C 72.050781 135.1875 70.875 134.011719 70.875 132.5625 Z M 94.5 132.5625 "/>
<path style=" stroke:none;fill-rule:nonzero;fill:rgb(14.901961%,21.568627%,25.098039%);fill-opacity:1;" d="M 26.25 108.9375 L 26.25 38.0625 C 26.25 35.898438 28.023438 34.125 30.1875 34.125 L 137.8125 34.125 C 139.976562 34.125 141.75 35.898438 141.75 38.0625 L 141.75 108.9375 Z M 26.25 108.9375 "/>
<path style=" stroke:none;fill-rule:nonzero;fill:rgb(25.098039%,41.568627%,50.196078%);fill-opacity:1;" d="M 34.125 42 L 133.875 42 L 133.875 102.375 L 34.125 102.375 Z M 34.125 42 "/>
<path style=" stroke:none;fill-rule:nonzero;fill:rgb(43.921569%,80%,74.117647%);fill-opacity:1;" d="M 136.5 111.5625 C 136.5 112.289062 135.914062 112.875 135.1875 112.875 C 134.460938 112.875 133.875 112.289062 133.875 111.5625 C 133.875 110.835938 134.460938 110.25 135.1875 110.25 C 135.914062 110.25 136.5 110.835938 136.5 111.5625 Z M 136.5 111.5625 "/>
<path style=" stroke:none;fill-rule:nonzero;fill:rgb(80%,34.509804%,29.803922%);fill-opacity:1;" d="M 85.3125 38.0625 C 85.3125 38.789062 84.726562 39.375 84 39.375 C 83.273438 39.375 82.6875 38.789062 82.6875 38.0625 C 82.6875 37.335938 83.273438 36.75 84 36.75 C 84.726562 36.75 85.3125 37.335938 85.3125 38.0625 Z M 85.3125 38.0625 "/>
<path style=" stroke:none;fill-rule:nonzero;fill:rgb(14.901961%,21.568627%,25.098039%);fill-opacity:1;" d="M 150.9375 137.8125 L 137.8125 137.8125 C 137.089844 137.8125 136.5 137.226562 136.5 136.5 C 136.5 135.773438 137.089844 135.1875 137.8125 135.1875 L 150.9375 135.1875 C 151.664062 135.1875 152.25 135.773438 152.25 136.5 C 152.25 137.226562 151.664062 137.8125 150.9375 137.8125 Z M 150.9375 137.8125 "/>
</g>
</svg>
