<?xml version="1.0" encoding="UTF-8"?>
<svg xmlns="http://www.w3.org/2000/svg" xmlns:xlink="http://www.w3.org/1999/xlink" width="48px" height="48px" viewBox="0 0 48 48" version="1.1">
<g id="surface1">
<path style=" stroke:none;fill-rule:nonzero;fill:rgb(94.901961%,81.176471%,38.039216%);fill-opacity:1;" d="M 48 24 C 48 37.253906 37.253906 48 24 48 C 10.746094 48 0 37.253906 0 24 C 0 10.746094 10.746094 0 24 0 C 37.253906 0 48 10.746094 48 24 Z M 48 24 "/>
<path style=" stroke:none;fill-rule:nonzero;fill:rgb(70.196078%,70.196078%,70.196078%);fill-opacity:1;" d="M 0 37.875 L 48 37.875 L 48 39 C 48 39.617188 47.492188 40.125 46.875 40.125 L 1.125 40.125 C 0.507812 40.125 0 39.617188 0 39 Z M 0 37.875 "/>
<path style=" stroke:none;fill-rule:nonzero;fill:rgb(90.196078%,90.196078%,90.196078%);fill-opacity:1;" d="M 40.5 31.125 L 7.5 31.125 L 0 37.875 L 48 37.875 Z M 40.5 31.125 "/>
<path style=" stroke:none;fill-rule:nonzero;fill:rgb(96.078431%,96.078431%,96.078431%);fill-opacity:1;" d="M 3.910156 36.375 L 8.074219 32.625 L 39.925781 32.625 L 44.089844 36.375 Z M 3.910156 36.375 "/>
<path style=" stroke:none;fill-rule:nonzero;fill:rgb(90.196078%,90.196078%,90.196078%);fill-opacity:1;" d="M 27 37.875 C 27 38.289062 26.664062 38.625 26.25 38.625 L 21 38.625 C 20.585938 38.625 20.25 38.289062 20.25 37.875 Z M 27 37.875 "/>
<path style=" stroke:none;fill-rule:nonzero;fill:rgb(14.901961%,21.568627%,25.098039%);fill-opacity:1;" d="M 7.5 31.125 L 7.5 10.875 C 7.5 10.257812 8.007812 9.75 8.625 9.75 L 39.375 9.75 C 39.992188 9.75 40.5 10.257812 40.5 10.875 L 40.5 31.125 Z M 7.5 31.125 "/>
<path style=" stroke:none;fill-rule:nonzero;fill:rgb(25.098039%,41.568627%,50.196078%);fill-opacity:1;" d="M 9.75 12 L 38.25 12 L 38.25 29.25 L 9.75 29.25 Z M 9.75 12 "/>
<path style=" stroke:none;fill-rule:nonzero;fill:rgb(43.921569%,80%,74.117647%);fill-opacity:1;" d="M 39 31.875 C 39 32.082031 38.832031 32.25 38.625 32.25 C 38.417969 32.25 38.25 32.082031 38.25 31.875 C 38.25 31.667969 38.417969 31.5 38.625 31.5 C 38.832031 31.5 39 31.667969 39 31.875 Z M 39 31.875 "/>
<path style=" stroke:none;fill-rule:nonzero;fill:rgb(80%,34.509804%,29.803922%);fill-opacity:1;" d="M 24.375 10.875 C 24.375 11.082031 24.207031 11.25 24 11.25 C 23.792969 11.25 23.625 11.082031 23.625 10.875 C 23.625 10.667969 23.792969 10.5 24 10.5 C 24.207031 10.5 24.375 10.667969 24.375 10.875 Z M 24.375 10.875 "/>
<path style=" stroke:none;fill-rule:nonzero;fill:rgb(14.901961%,21.568627%,25.098039%);fill-opacity:1;" d="M 43.125 39.375 L 39.375 39.375 C 39.167969 39.375 39 39.207031 39 39 C 39 38.792969 39.167969 38.625 39.375 38.625 L 43.125 38.625 C 43.332031 38.625 43.5 38.792969 43.5 39 C 43.5 39.207031 43.332031 39.375 43.125 39.375 Z M 43.125 39.375 "/>
</g>
</svg>
