<?xml version="1.0" encoding="UTF-8"?>
<svg xmlns="http://www.w3.org/2000/svg" xmlns:xlink="http://www.w3.org/1999/xlink" width="144px" height="144px" viewBox="0 0 144 144" version="1.1">
<g id="surface1">
<path style=" stroke:none;fill-rule:nonzero;fill:rgb(94.901961%,81.176471%,38.039216%);fill-opacity:1;" d="M 144 72 C 144 111.765625 111.765625 144 72 144 C 32.234375 144 0 111.765625 0 72 C 0 32.234375 32.234375 0 72 0 C 111.765625 0 144 32.234375 144 72 Z M 144 72 "/>
<path style=" stroke:none;fill-rule:nonzero;fill:rgb(70.196078%,70.196078%,70.196078%);fill-opacity:1;" d="M 0 113.625 L 144 113.625 L 144 117 C 144 118.855469 142.480469 120.375 140.625 120.375 L 3.375 120.375 C 1.519531 120.375 0 118.855469 0 117 Z M 0 113.625 "/>
<path style=" stroke:none;fill-rule:nonzero;fill:rgb(90.196078%,90.196078%,90.196078%);fill-opacity:1;" d="M 121.5 93.375 L 22.5 93.375 L 0 113.625 L 144 113.625 Z M 121.5 93.375 "/>
<path style=" stroke:none;fill-rule:nonzero;fill:rgb(96.078431%,96.078431%,96.078431%);fill-opacity:1;" d="M 11.726562 109.125 L 24.226562 97.875 L 119.773438 97.875 L 132.273438 109.125 Z M 11.726562 109.125 "/>
<path style=" stroke:none;fill-rule:nonzero;fill:rgb(90.196078%,90.196078%,90.196078%);fill-opacity:1;" d="M 81 113.625 C 81 114.867188 79.992188 115.875 78.75 115.875 L 63 115.875 C 61.757812 115.875 60.75 114.867188 60.75 113.625 Z M 81 113.625 "/>
<path style=" stroke:none;fill-rule:nonzero;fill:rgb(14.901961%,21.568627%,25.098039%);fill-opacity:1;" d="M 22.5 93.375 L 22.5 32.625 C 22.5 30.769531 24.019531 29.25 25.875 29.25 L 118.125 29.25 C 119.980469 29.25 121.5 30.769531 121.5 32.625 L 121.5 93.375 Z M 22.5 93.375 "/>
<path style=" stroke:none;fill-rule:nonzero;fill:rgb(25.098039%,41.568627%,50.196078%);fill-opacity:1;" d="M 29.25 36 L 114.75 36 L 114.75 87.75 L 29.25 87.75 Z M 29.25 36 "/>
<path style=" stroke:none;fill-rule:nonzero;fill:rgb(43.921569%,80%,74.117647%);fill-opacity:1;" d="M 117 95.625 C 117 96.246094 116.496094 96.75 115.875 96.75 C 115.253906 96.75 114.75 96.246094 114.75 95.625 C 114.75 95.003906 115.253906 94.5 115.875 94.5 C 116.496094 94.5 117 95.003906 117 95.625 Z M 117 95.625 "/>
<path style=" stroke:none;fill-rule:nonzero;fill:rgb(80%,34.509804%,29.803922%);fill-opacity:1;" d="M 73.125 32.625 C 73.125 33.246094 72.621094 33.75 72 33.75 C 71.378906 33.75 70.875 33.246094 70.875 32.625 C 70.875 32.003906 71.378906 31.5 72 31.5 C 72.621094 31.5 73.125 32.003906 73.125 32.625 Z M 73.125 32.625 "/>
<path style=" stroke:none;fill-rule:nonzero;fill:rgb(14.901961%,21.568627%,25.098039%);fill-opacity:1;" d="M 129.375 118.125 L 118.125 118.125 C 117.503906 118.125 117 117.621094 117 117 C 117 116.378906 117.503906 115.875 118.125 115.875 L 129.375 115.875 C 129.996094 115.875 130.5 116.378906 130.5 117 C 130.5 117.621094 129.996094 118.125 129.375 118.125 Z M 129.375 118.125 "/>
</g>
</svg>
